<?xml version="1.0" encoding="UTF-8" standalone="no"?>
<svg
   xmlns:svg="http://www.w3.org/2000/svg"
   xmlns="http://www.w3.org/2000/svg"
   version="1.0"
   width="160"
   height="70"
   viewBox="0 0 160 70">
  <g
     transform="translate(0.000000,95.000000) scale(0.100000,-0.100000)"
     fill="#0a1b7b"
     stroke="none"
     id="g35702">
    <path
       d="M448 919 c-230 -48 -382 -129 -428 -225 -40 -82 -8 -202 71 -269 128 -107 359 -159 709 -159 350 0 581 52 709 159 70 60 104 160 81 244 -29 107 -194 200 -450 252 l-98 20 -121 -61 -121 -60 -120 60 c-66 33 -125 60 -132 59 -7 -1 -52 -9 -100 -20z m163 -80 c52 -22 95 -42 97 -44 2 -2 -49 -31 -112 -65 l-116 -61 0 -140 0 -139 50 0 50 0 0 89 0 90 110 -50 110 -50 110 50 110 50 0 -90 0 -89 50 0 50 0 0 139 0 140 -116 61 c-63 34 -114 63 -112 65 2 2 45 21 95 43 90 39 94 40 140 28 158 -42 243 -123 243 -231 0 -119 -98 -218 -270 -273 -92 -30 -178 -42 -300 -42 -336 0 -570 129 -570 315 0 107 84 187 240 231 25 7 45 13 46 13 0 1 43 -17 95 -40z m311 -136 l110 -58 -109 -52 c-59 -29 -113 -53 -119 -53 -14 0 -224 99 -224 105 0 6 211 114 224 114 5 1 58 -25 118 -56z"
       id="path35700" />
  </g>
  <circle
     style="fill:#ffffff;fill-opacity:1;stroke:#000000;stroke-width:0;stroke-miterlimit:4;stroke-dasharray:none;stroke-opacity:1"
     id="path35714"
     cx="148.05304"
     cy="33.148121"
     r="9.4874983" />
  <text
     xml:space="preserve"
     style="font-style:normal;font-weight:bold;font-size:12px;line-height:1;font-family:Arial,sans-serif;letter-spacing:0px;word-spacing:0px;fill:#0a1b7b;fill-opacity:1;stroke:none;"
     x="144"
     y="37.5"
     >R</text>
</svg>
